<svg width="35" height="36" viewBox="0 0 35 36" fill="none" xmlns="http://www.w3.org/2000/svg">
<path d="M26.8398 6.50003C22.3065 2.83336 16.37 1.94447 11.0811 4.38892C5.46838 6.94447 2.01441 13.1667 2.66203 19.3889C3.30965 25.5 7.73504 30.7222 13.4557 32.5C19.3922 34.2778 25.6525 31.6111 29.2144 26.6111C33.6398 20.3889 32.5604 11.3889 26.8398 6.50003C25.9763 5.83336 24.8969 5.72225 24.1414 6.50003C23.3858 7.16669 23.2779 8.61114 24.0335 9.38892C27.9192 12.7222 29.3223 18.3889 26.8398 23.0556C24.789 26.9445 20.4715 29.5 16.0462 29.0556C11.8366 28.5 7.95091 25.1667 6.87155 20.9445C5.57631 16.2778 7.51917 11.1667 11.5128 8.72225C15.3985 6.27781 20.5795 6.50003 24.0335 9.38892C24.8969 10.0556 25.9763 10.1667 26.7319 9.38892C27.4874 8.61114 27.7033 7.16669 26.8398 6.50003Z" fill="black"/>
<path d="M12.5921 15.8334C15.0747 15.8334 15.0747 11.8334 12.5921 11.8334C10.1096 11.8334 10.1096 15.8334 12.5921 15.8334Z" fill="black"/>
<path d="M22.4144 15.8334C24.897 15.8334 24.897 11.8334 22.4144 11.8334C19.9319 11.8334 19.824 15.8334 22.4144 15.8334Z" fill="black"/>
<path d="M9.78587 20.9445C11.297 23.9445 14.4271 25.7222 17.5573 25.6111C20.5795 25.5 23.9256 24.0556 25.3287 21.1667C25.7605 20.2778 25.6525 18.9445 24.6811 18.3889C23.8176 17.9445 22.5224 18.0556 21.9827 19.0556C21.8748 19.2778 21.7668 19.6111 21.551 19.8334C21.3351 20.0556 21.7668 19.6111 21.551 19.8334C21.443 19.9445 21.443 20.0556 21.3351 20.0556C21.2271 20.1667 21.1192 20.2778 21.0113 20.3889C21.1192 20.2778 21.1192 20.2778 21.0113 20.3889C20.7954 20.5 20.5795 20.6111 20.3636 20.7222C20.2557 20.8334 20.1478 20.8334 19.9319 20.9445C19.6081 21.0556 20.1478 20.8334 19.9319 20.9445C19.716 21.0556 19.5002 21.1667 19.2843 21.1667C18.9605 21.2778 18.6367 21.3889 18.3129 21.3889C18.3129 21.3889 17.989 21.3889 18.2049 21.3889C17.989 21.3889 17.8811 21.3889 17.6652 21.3889C17.3414 21.3889 17.1256 21.3889 16.8017 21.3889C16.4779 21.3889 17.0176 21.3889 16.6938 21.3889C16.4779 21.3889 16.37 21.2778 16.1541 21.2778C16.0462 21.2778 15.8303 21.1667 15.7224 21.1667C15.5065 21.0556 15.6144 21.1667 15.7224 21.1667C15.5065 21.0556 15.1827 20.9445 14.9668 20.8334C14.8589 20.7222 14.751 20.7222 14.643 20.6111C14.643 20.6111 14.3192 20.3889 14.4271 20.5C14.643 20.6111 14.2113 20.2778 14.2113 20.2778C14.1033 20.1667 13.9954 20.0556 13.9954 20.0556C13.8875 19.9445 13.7795 19.8334 13.7795 19.7222C13.5636 19.5 13.4557 19.1667 13.3478 18.8334C12.916 17.9445 11.5129 17.5 10.6494 18.1667C9.57 18.8334 9.35412 19.9445 9.78587 20.9445Z" fill="black"/>
</svg>
