<?xml version="1.0" standalone="no"?>
<!DOCTYPE svg PUBLIC "-//W3C//DTD SVG 20010904//EN"
 "http://www.w3.org/TR/2001/REC-SVG-20010904/DTD/svg10.dtd">
<svg version="1.0" xmlns="http://www.w3.org/2000/svg"
 width="2100.000000pt" height="2100.000000pt" viewBox="0 0 2100.000000 2100.000000"
 preserveAspectRatio="xMidYMid meet">

<g transform="translate(0.000000,2100.000000) scale(0.100000,-0.100000)"
fill="#000000" stroke="none">
<path d="M7025 17884 c-394 -6 -1129 -24 -1925 -49 -1278 -39 -1549 -46 -1979
-46 -457 -1 -572 -10 -729 -60 -162 -52 -282 -120 -434 -247 -287 -237 -433
-641 -373 -1032 78 -517 425 -900 910 -1005 130 -29 590 -38 1030 -21 1542 60
2913 81 4815 73 767 -4 1638 -11 1935 -16 892 -17 1478 -31 1895 -44 290 -9
1194 -11 3396 -10 2934 2 3003 2 3095 21 488 102 839 486 915 1002 64 440
-111 866 -459 1114 -161 115 -304 165 -585 205 -271 39 -406 45 -917 35 -709
-13 -4449 -10 -5315 4 -776 13 -1872 32 -3245 57 -919 16 -1709 24 -2030 19z"/>
<path d="M19205 13877 c-144 -48 -230 -142 -270 -294 -18 -65 -14 -140 31
-638 75 -846 98 -1177 115 -1647 22 -605 -16 -1061 -105 -1261 -58 -130 -258
-343 -404 -431 -182 -109 -359 -152 -587 -143 -221 9 -348 45 -493 140 -111
72 -208 175 -260 274 -121 232 -239 639 -311 1068 -64 379 -142 1047 -185
1590 -9 105 -28 303 -42 440 -22 204 -31 259 -51 301 -34 75 -94 138 -164 173
-247 123 -520 8 -589 -249 -16 -60 -15 -93 19 -420 17 -157 48 -463 71 -680
119 -1152 246 -1811 444 -2303 126 -312 220 -472 365 -618 253 -252 601 -396
1045 -430 478 -37 1023 122 1399 408 89 67 241 217 298 294 186 251 274 676
309 1494 27 642 -1 1290 -106 2405 -24 264 -27 277 -56 332 -39 74 -102 132
-186 171 -57 27 -81 32 -157 34 -55 2 -105 -2 -130 -10z"/>
<path d="M14410 13484 c-144 -39 -249 -157 -281 -315 -9 -47 -4 -119 40 -509
104 -937 269 -2641 259 -2672 -2 -6 -81 79 -175 188 -469 545 -829 921 -1599
1669 -422 410 -734 708 -954 913 -162 151 -181 164 -252 192 -43 17 -101 35
-130 41 -161 35 -341 -56 -413 -207 -55 -117 -58 -70 59 -1079 137 -1180 214
-1836 271 -2305 25 -206 66 -541 90 -745 24 -203 51 -390 60 -415 51 -144 158
-233 315 -262 113 -21 247 21 341 109 62 58 95 121 110 210 13 76 21 0 -106
1048 -41 336 -102 846 -135 1135 -34 289 -76 658 -95 820 -19 161 -33 295 -31
297 5 6 1087 -1088 1342 -1357 517 -545 909 -1000 1323 -1535 179 -232 227
-275 350 -316 102 -34 199 -31 284 9 87 40 159 112 200 200 42 89 44 151 18
552 -70 1044 -149 1894 -322 3445 -63 575 -72 635 -95 682 -81 166 -288 257
-474 207z"/>
<path d="M9600 12725 c-80 -14 -341 -49 -580 -80 -927 -118 -1323 -202 -1738
-370 -253 -102 -383 -267 -350 -445 12 -65 37 -116 80 -165 31 -36 114 -85
142 -85 8 0 17 -4 20 -8 2 -4 95 -795 206 -1757 199 -1725 202 -1751 231
-1812 35 -74 96 -131 189 -178 94 -47 225 -60 620 -60 391 0 614 21 1005 96
426 81 963 251 1084 343 142 107 203 269 155 409 -36 107 -165 200 -298 217
-94 12 -185 -3 -308 -49 -417 -157 -914 -264 -1351 -291 -141 -9 -377 -13
-377 -7 0 1 -31 272 -69 602 -39 329 -68 603 -65 607 3 4 23 8 46 8 22 0 104
9 182 20 77 10 213 29 301 40 503 67 1105 187 1232 245 252 116 317 392 133
558 -59 53 -114 80 -195 97 -77 16 -127 10 -430 -50 -392 -78 -1053 -179
-1292 -197 -59 -5 -62 -4 -67 18 -4 20 -141 1202 -149 1289 -2 24 3 26 153 62
225 54 454 91 995 158 741 92 814 104 914 152 150 72 230 178 239 318 7 115
-26 173 -139 249 -130 87 -279 106 -519 66z"/>
<path d="M5105 12257 c-109 -28 -217 -113 -266 -209 -48 -94 -224 -748 -535
-1986 -268 -1068 -343 -1362 -353 -1379 -9 -16 -215 280 -589 847 -1152 1744
-1380 2079 -1476 2173 -71 68 -155 107 -247 114 -209 16 -393 -114 -428 -301
-6 -31 7 -837 35 -2225 36 -1765 47 -2185 59 -2226 49 -172 192 -277 376 -279
77 0 92 3 152 32 37 18 90 55 117 82 67 65 123 181 128 265 5 80 -39 2077 -63
2855 -6 168 -4 193 8 180 7 -8 409 -610 892 -1337 l878 -1322 91 -45 c54 -27
116 -49 151 -55 129 -20 267 29 366 129 l56 57 61 219 c75 265 135 497 237
914 153 627 405 1640 430 1731 14 52 35 125 47 164 l20 69 15 -34 c42 -100
184 -491 258 -712 179 -539 369 -1226 575 -2087 33 -140 69 -274 80 -298 29
-65 104 -139 179 -176 62 -30 72 -32 176 -32 104 0 113 2 176 33 176 89 251
244 213 444 -40 213 -160 701 -270 1101 -209 757 -553 1758 -906 2642 -161
401 -195 473 -257 538 -96 101 -253 148 -386 114z"/>
<path d="M17890 5610 c-560 -34 -3132 -42 -6645 -21 -2092 12 -2345 12 -2930
-3 -2451 -63 -2856 -72 -4152 -87 -759 -9 -988 -9 -1047 0 -93 15 -279 16
-372 1 -445 -70 -796 -369 -952 -812 -82 -232 -84 -511 -5 -731 166 -466 627
-795 1172 -836 138 -10 1605 11 3671 54 2130 44 2423 48 3675 49 682 1 2057
-5 3055 -13 1472 -12 2005 -12 2820 -3 1406 17 1999 36 2143 67 291 63 531
221 699 460 99 140 178 332 209 505 19 104 16 346 -5 440 -81 371 -299 650
-630 810 -220 106 -408 138 -706 120z"/>
</g>
</svg>
