<svg xmlns="http://www.w3.org/2000/svg" width="40" height="40" data-name="Layer 1" viewBox="0 0 48 48" id="pencil">
<path
        d="M36.24 18.23l-2.33 2.33a.6.6 0 0 1-.86 0L27.43 15a.6.6 0 0 1 0-.86l2.33-2.34a2.45 2.45 0 0 1 3.44 0l3 3A2.41 2.41 0 0 1 36.24 18.23zM31.91 21.71l-5.62-5.62a.6.6 0 0 0-.86 0L12.13 29.38l-1.07 6.15a1.22 1.22 0 0 0 1.41 1.41l6.15-1.08L31.91 22.57A.6.6 0 0 0 31.91 21.71zm-14 12.63l-3.27.57-1.57-1.57.57-3.27H15.5V32.5h2.43zm8.19-13.89l-7.8 7.79a.71.71 0 0 1-1-1l7.8-7.79a.71.71 0 0 1 1 1z"
        fill="#3052ff">
</path>
</svg>