<svg
   id="Layer_1"
   data-name="Layer 1"
   viewBox="0 0 400 90"
   version="1.1"
   xmlns="http://www.w3.org/2000/svg"
   xmlns:svg="http://www.w3.org/2000/svg">
  <path
      fill="#fff"
      d="m 25.121234,25.323351 c 4.81,0 8.97,0.92 12.45,2.77 5.64,3.2 7.97,7.31 7.22,10.84 -0.53,2.49 -1.91,4.21 -4.73,5.05 -2.48,0.67 -4.63,0.14 -6.22,-1.77 -3.62,-4.34 -7.26,-4.28 -11.2,-4.28 -2.62,0 -5.73,1.8 -6.49,3.79 -0.57,1.09 -0.7,3.82 0.52,5.04 1.43,1.43 5.23,1.93 9.71,1.76 2.65,0 4.72,0.22 6,0.46 5.25,0.96 9.6,3.24 12.92,8.11 2.16,3.03 3.08,6.57 3.08,9.82 0,5.38 -2.08,9.84 -6.56,13.38 -1.83,1.35 -3.73,2.35 -5.72,3.03 -8.8,2.86 -16.6,2.86 -23.4,0 -5.4800004,-2.68 -8.7200004,-5.87 -9.7100004,-9.57 -0.67,-2.86 0.41,-5.13 3.24,-6.81 2.66,-1.68 4.7900004,-1.68 7.2200004,0.25 3.71,3.71 8.25,5.36 15.68,4.28 2.82,-0.17 4.73,-1.26 5.72,-3.28 0.33,-0.68 0.9,-2.3 0,-3.78 -1.09,-1.78 -4.15,-2.62 -7.96,-2.52 -7.58,0.2 -14.36,-1.34 -18.1700004,-5.04 -4.16,-3.53 -6.06,-8.15 -5.73,-13.87 0,-3.7 1.08,-6.98 3.23,-9.83 3.8100004,-5.38 9.9500004,-7.99 18.4100004,-7.82 h 0.5 z"
      id="path828" />
  <path
      fill="#fff"
      d="m 77.141234,25.573351 c 5.15,-0.01 9.8,1.34 13.94,4.03 2.16,1.5 3.24,3.16 3.24,6.04 0,2.71 -1.66,4.62 -3.98,5.8 -2.32,1.01 -4.49,0.76 -6.47,-0.76 -1.83,-1.01 -4.06,-1.51 -6.73,-1.51 -2.15,0 -4.23,0.59 -6.21,1.77 -3.65,2.52 -5.47,7.31 -5.47,14.37 v 0.25 c 0,7.56 1.75,12.52 5.23,14.87 1.83,1.18 3.99,1.77 6.47,1.77 2.66,0 4.95,-0.52 6.72,-1.77 2.01,-1.42 4.15,-1.94 6.48,-0.76 2.32,1.18 3.72,2.89 3.93,5.8 0.2,2.68 -1.1,4.5 -3.15,5.85 -4.2,2.78 -8.83,4.23 -13.97,4.23 -5.14,0 -9.63,-1.34 -13.44,-4.03 -7.63,-4.87 -11.45,-13.61 -11.46,-26.22 0,-10.75 3.23,-18.82 9.7,-24.2 4.15,-3.71 9.21,-5.55 15.18,-5.55 z"
      id="path830" />
  <path
      fill="#fff"
      d="m 124.19123,25.553351 c 9.13,0 16.01,4.11 20.66,12.34 1.33,2.51 1.33,4.96 0,7.31 -1.5,2.19 -3.57,3.2 -6.22,3.03 -2.66,-0.34 -4.48,-1.77 -5.48,-4.28 -1.16,-2.35 -2.65,-3.78 -4.48,-4.28 -1.33,-0.33 -2.82,-0.5 -4.48,-0.5 -4.31,0 -7.36,1.34 -8.71,3.53 0,0 -0.45,0.64 -0.75,1.26 -0.83,1.85 -1.33,3.78 -1.49,5.8 v 28.99 c 0,2.53 -0.99,4.46 -2.98,5.81 -2.32,1.34 -4.56,1.34 -6.72,0 -2.16,-1.34 -3.23,-3.27 -3.24,-5.8 v -28.99 c 0.82,-11.59 5.88,-19.08 15.17,-22.44 2.65,-1.18 5.56,-1.76 8.71,-1.76 z"
      id="path832" />
  <path
      fill="#fff"
      d="m 335.76123,70.123351 c 1.77,-1.13 4.23,-2.1 6.72,-1.26 2.15,1.01 3.39,2.85 3.72,5.54 0.51,2.52 -0.32,4.54 -2.48,6.06 -2.32,2.01 -5.22,3.45 -8.7,4.29 -2.49,0.5 -6.65,0.67 -12.45,0.5 -4.14,0 -8.22,-1.42 -12.2,-4.28 -7.3,-5.37 -11.2,-13.52 -11.71,-24.45 q -0.09,-1.47 0,-2.78 c 0.49,-11.43 4.39,-19.58 11.7,-24.46 3.98,-2.86 8.54,-4.29 13.68,-4.29 3.82,0 7.23,0.84 10.21,2.52 7.97,5.04 11.95,13.44 11.95,25.21 v 2.52 c 0,0.84 -0.16,1.69 -0.49,2.52 -1,2.69 -2.99,4.03 -5.98,4.03 h -27.12 c 1.16,5.73 4.47,9 9.96,9.84 0,0 0.45,0.16 2.35,0.16 5.02,0 9.35,-0.67 10.84,-1.67 z m -13.21,-31.52 c -1.48,0 -3.15,0.51 -4.98,1.52 -2.65,1.85 -4.31,4.63 -4.97,8.32 h 20.4 c 0,0 0,-0.51 0,-0.51 -0.66,-4.2 -2.33,-6.98 -4.98,-8.32 -1.16,-0.67 -2.93,-1.01 -4.23,-1.01 -1.3,0 -1.25,0 -1.25,0 z"
      id="path834" />
  <path
      fill="#fff"
      d="m 165.15123,9.7433508 c 0,4.1000002 -3,7.4100002 -6.7,7.4100002 -3.7,0 -6.7,-3.32 -6.7,-7.4100002 0,-4.09 3,-7.41 6.7,-7.41 3.7,0 6.7,3.32 6.7,7.41 z"
      id="path836" />
  <path
      fill="#fff"
      d="m 165.15123,32.743351 c 0,-4.09 -3,-7.41 -6.7,-7.41 -3.7,0 -6.7,3.32 -6.7,7.41 v 45.45 c 0,4.1 3,7.41 6.7,7.41 3.7,0 6.7,-3.32 6.7,-7.41 z"
      id="path838" />
  <path
      fill="#fff"
      d="m 286.21123,3.0733508 c -3.7,0 -6.7,3.32 -6.7,7.4100002 v 67.71 c 0,4.1 3,7.41 6.7,7.41 3.7,0 6.7,-3.32 6.7,-7.41 v -67.7 c 0,-4.1000002 -3,-7.4100002 -6.7,-7.4100002 z"
      id="path840" />
  <path
      fill="#fff"
      d="m 376.81123,25.483351 c 9.13,0 16,4.11 20.66,12.35 1.33,2.51 1.33,4.96 0,7.3 -1.5,2.19 -3.57,3.2 -6.22,3.03 -2.66,-0.34 -4.48,-1.77 -5.48,-4.29 -1.16,-2.35 -2.65,-3.78 -4.48,-4.28 -1.33,-0.33 -2.82,-0.5 -4.48,-0.5 -4.32,0 -7.37,1.35 -8.71,3.53 0,0 -0.45,0.64 -0.74,1.26 -0.83,1.85 -1.33,3.78 -1.49,5.8 v 28.99 c 0,2.53 -0.99,4.46 -2.98,5.81 -2.33,1.34 -4.57,1.34 -6.72,0 -2.16,-1.34 -3.23,-3.27 -3.24,-5.8 v -28.99 c 0.82,-11.59 5.88,-19.08 15.17,-22.44 2.65,-1.18 5.56,-1.76 8.71,-1.76 z"
      id="path842" />
  <path
      fill="#fff"
      d="m 217.81123,43.653351 c -2.62,-10.23 -11.7,-17.78 -22.5,-17.78 -3.56,0 -6.94,0.82 -9.96,2.29 0,0 0.01,-18.2900002 0.01,-18.4200002 0,-4.1 -3,-7.41 -6.7,-7.41 -3.7,0 -6.7,3.32 -6.7,7.41 0,0.14 0.09,51.9700002 0.09,51.9700002 0,13.18 10.41,23.85 23.26,23.85 10.8,0 19.88,-7.55 22.5,-17.78 1.07,-3.31 1.71,-7.5 1.71,-12.06 0,-4.56 -0.64,-8.76 -1.71,-12.07 z m -13.41,21.97 c -1.15,3.8 -4.88,6.58 -9.3,6.58 -5.34,0 -9.67,-4.06 -9.67,-9.07 v -14.64 c 0,-5.01 4.33,-9.07 9.67,-9.07 3.05,0 5.77,1.33 7.54,3.39 2.02,1.89 3.47,6.89 3.47,12.77 0,3.97 -0.66,7.54 -1.71,10.03 z"
      id="path844" />
  <path
      fill="#fff"
      d="m 271.57123,43.653351 c -2.62,-10.23 -11.7,-17.78 -22.5,-17.78 -3.57,0 -6.94,0.82 -9.96,2.29 0,0 0,-18.2900002 0,-18.4200002 0,-4.1 -3,-7.41 -6.7,-7.41 -3.7,0 -6.7,3.32 -6.7,7.41 0,0.14 0.09,51.9700002 0.09,51.9700002 0,13.18 10.41,23.85 23.26,23.85 10.8,0 19.88,-7.55 22.5,-17.78 1.07,-3.31 1.71,-7.5 1.71,-12.06 0,-4.56 -0.64,-8.76 -1.71,-12.07 z m -13.41,21.97 c -1.15,3.8 -4.88,6.58 -9.3,6.58 -5.34,0 -9.67,-4.06 -9.67,-9.07 v -14.64 c 0,-5.01 4.33,-9.07 9.67,-9.07 3.05,0 5.77,1.33 7.54,3.39 2.02,1.89 3.47,6.89 3.47,12.77 0,3.97 -0.66,7.54 -1.71,10.03 z"
      id="path846" />
</svg>
