<svg width="35" height="30" viewBox="0 0 35 30" fill="none" xmlns="http://www.w3.org/2000/svg">
<path d="M0.430391 10.5714C1.34468 13.8857 2.25896 17.2 3.05896 20.4C3.51611 22 3.97325 23.7143 4.43039 25.3143C4.77325 26.8 5.11611 28.4 6.60182 28.9714C8.08753 29.5429 9.91611 29.3143 11.4018 29.3143C13.1161 29.3143 14.8304 29.4286 16.5447 29.4286C20.0875 29.4286 23.6304 29.4286 27.059 29.3143C28.0875 29.3143 28.659 28.6286 29.0018 27.8286C31.1733 22.3429 32.7733 16.6286 34.0304 10.8C34.259 9.42859 33.459 8.28573 32.0875 8.17144C22.259 7.94287 12.3161 7.94287 2.37325 7.94287C-0.255323 7.94287 -0.255323 12.0572 2.37325 12.0572C12.3161 12.0572 22.259 12.0572 32.2018 12.2857C31.5161 11.3714 30.8304 10.5714 30.259 9.65716C29.1161 15.4857 27.4018 21.2 25.2304 26.6857C25.9161 26.2286 26.6018 25.6572 27.1733 25.2C21.0018 25.4286 14.8304 25.4286 8.65896 25.2C8.08753 25.2 7.40182 24.8572 8.31611 25.5429C9.23039 26.2286 8.77325 25.6572 8.65896 25.0857C8.43039 24.2857 8.20182 23.6 7.97325 22.9143C7.51611 21.4286 7.17325 19.9429 6.83039 18.5714C6.03039 15.6 5.23039 12.5143 4.31611 9.54287C3.63039 6.9143 -0.255323 7.94287 0.430391 10.5714Z" fill="black"/>
<path d="M14.8304 27.2571C14.8304 21.8857 15.0589 16.5143 15.2875 11.0286C15.4018 9.88572 14.2589 8.97144 13.2303 8.97144C12.0875 8.97144 11.2875 9.88572 11.1732 11.0286C10.8303 16.4 10.7161 21.7714 10.7161 27.2571C10.7161 29.8857 14.8304 29.8857 14.8304 27.2571Z" fill="black"/>
<path d="M23.1732 26.9143C23.2875 21.4286 23.4018 16.0571 23.6304 10.5714C23.6304 9.42857 22.6018 8.51428 21.5732 8.51428C20.4304 8.51428 19.5161 9.42857 19.5161 10.5714C19.2875 16.0571 19.059 21.4286 19.059 26.9143C19.059 29.5429 23.1732 29.5429 23.1732 26.9143Z" fill="black"/>
<path d="M4.65893 20.7428C13.0018 20.7428 21.3446 20.8571 29.6875 20.9714C32.3161 20.9714 32.3161 16.8571 29.6875 16.8571C21.3446 16.7428 13.0018 16.6285 4.65893 16.6285C2.03036 16.6285 2.03036 20.7428 4.65893 20.7428Z" fill="black"/>
<path d="M13.9162 8.39998C13.9162 7.94284 13.9162 7.4857 14.0305 7.02855C14.0305 6.91427 14.0305 6.91427 14.0305 7.02855C14.0305 6.91427 14.0305 6.79998 14.1447 6.6857C14.1447 6.45713 14.259 6.22855 14.3733 5.99998C14.1447 6.34284 14.3733 5.77141 14.3733 5.99998C14.4876 5.8857 14.7162 5.54284 14.3733 5.8857C14.4876 5.77141 14.6019 5.65713 14.7162 5.54284C15.059 5.19998 14.3733 5.77141 14.8305 5.42855C14.9447 5.31427 15.059 5.31427 15.1733 5.19998C15.4019 5.0857 15.5162 4.97141 15.2876 5.0857C15.6305 4.97141 15.9733 4.85713 16.3162 4.74284C16.4305 4.85713 16.5447 4.85713 16.659 4.74284C17.2305 4.62856 16.3162 4.74284 16.8876 4.74284C17.2305 4.74284 17.5733 4.74284 17.9162 4.74284C18.1447 4.74284 18.259 4.74284 18.4876 4.74284C18.0305 4.74284 18.6019 4.74284 18.6019 4.74284C18.8305 4.74284 18.9447 4.85713 19.1733 4.85713C19.2876 4.85713 19.6305 5.0857 19.4019 4.85713C19.6305 4.97141 19.7447 5.0857 19.9733 5.0857C19.9733 5.0857 20.4305 5.42856 20.3162 5.31427C20.0876 5.19998 20.5447 5.54284 20.5447 5.54284C20.659 5.65713 20.7733 5.77141 20.8876 5.99998C20.659 5.77141 20.8876 5.99998 21.0019 6.11427C21.1162 6.22855 21.1162 6.45713 21.2305 6.57141C21.459 7.02855 21.1162 6.22855 21.2305 6.6857C21.2305 6.79998 21.3447 7.02855 21.3447 7.14284C21.3447 7.37141 21.459 7.59998 21.3447 7.25713C21.3447 7.37141 21.3447 7.59998 21.3447 7.71427C21.3447 7.82856 21.3447 8.39998 21.3447 8.17141C21.3447 7.94284 21.2305 8.51427 21.2305 8.51427C21.0019 9.54284 21.5733 10.8 22.7162 11.0286C23.7447 11.2571 25.0019 10.6857 25.2305 9.54284C25.8019 7.25713 25.2305 4.85713 23.859 3.02856C22.4876 1.31427 20.3162 0.399983 18.1447 0.285698C16.3162 0.171412 14.1447 0.628555 12.5447 1.65713C11.5162 2.79998 10.8305 3.71427 10.3733 4.85713C9.91617 5.99998 9.91617 7.25713 9.80188 8.39998C9.80188 9.42856 10.8305 10.4571 11.859 10.4571C13.0019 10.4571 13.9162 9.54284 13.9162 8.39998Z" fill="black"/>
</svg>
