<svg width="34" height="36" viewBox="0 0 34 36" fill="none" xmlns="http://www.w3.org/2000/svg">
<path d="M15.8666 14.3888C15.8666 14.1666 15.8666 14.0555 15.8666 13.8333C15.8666 13.8333 15.9746 13.2777 15.8666 13.5C15.8666 13.7222 15.9746 13.2777 15.9746 13.1666C15.9746 13.0555 16.1904 12.6111 15.9746 12.9444C16.0825 12.8333 16.0825 12.7222 16.1904 12.6111C15.8666 12.8333 16.2984 12.3888 16.1904 12.6111C16.1904 12.6111 16.5142 12.2777 16.2984 12.5C16.0825 12.7222 16.4063 12.3888 16.5142 12.3888C16.7301 12.2777 16.946 12.2777 16.6222 12.2777C16.7301 12.2777 16.8381 12.1666 16.946 12.1666C16.6222 12.1666 17.1619 12.0555 16.946 12.1666C17.0539 12.1666 17.0539 12.1666 17.1619 12.1666C17.2698 12.1666 17.2698 12.1666 17.0539 12.1666C17.1619 12.1666 17.3777 12.2777 17.3777 12.2777L17.7015 12.5C17.4857 12.3888 17.4857 12.3888 17.7015 12.5C17.8095 12.6111 17.9174 12.7222 17.9174 12.7222C17.7015 12.5 17.8095 12.5 17.9174 12.7222L18.0254 13.1666C17.9174 12.8333 18.0254 13.1666 18.0254 13.2777C18.0254 13.3888 18.0254 13.6111 18.0254 13.7222C18.0254 14.2777 18.1333 13.3888 18.0254 13.9444C18.0254 14.0555 17.9174 14.2777 17.9174 14.3888C17.9174 14.5 17.8095 14.6111 17.8095 14.8333C17.9174 14.3888 17.7015 14.9444 17.7015 14.9444C17.8095 14.8333 17.8095 14.8333 17.7015 14.9444C17.3777 15.2777 18.0254 14.7222 17.5936 15.0555C17.0539 15.3888 16.4063 15.8333 15.9746 16.2777C16.2984 16.0555 16.5142 15.9444 16.8381 15.7222C14.5714 16.6111 14.3555 19.1666 14.6793 21.3888C14.7873 22.3888 16.1904 23.0555 17.0539 22.8333C18.1333 22.5 18.565 21.5 18.4571 20.3888C18.4571 20.5 18.565 21.0555 18.4571 20.6111C18.4571 20.3888 18.4571 20.1666 18.4571 19.9444C18.4571 19.7222 18.4571 19.5 18.4571 19.2777C18.4571 18.9444 18.4571 19.5 18.4571 19.5V19.2777V19.1666C18.565 18.8333 18.4571 19.1666 18.3492 19.2777C18.3492 19.2777 18.3492 19.1666 18.4571 19.1666C18.4571 19.1666 18.1333 19.5 18.2412 19.3888C18.3492 19.2777 17.8095 19.6111 18.0254 19.5C18.2412 19.3888 17.7015 19.6111 17.7015 19.6111C18.1333 19.3888 18.4571 19.1666 18.7809 18.8333C18.7809 18.8333 18.565 19.0555 18.673 18.9444C18.7809 18.8333 18.8889 18.8333 18.9968 18.7222C19.8603 18.1666 20.6158 17.5 21.1555 16.5C22.1269 14.3888 22.1269 11.8333 20.6158 9.9444C19.4285 8.38884 17.1619 7.72217 15.3269 8.27773C14.1396 8.72217 13.1682 9.49995 12.5206 10.5C11.873 11.6111 11.765 12.8333 11.6571 14.1666C11.6571 15.1666 12.6285 16.1666 13.6 16.1666C15.0031 16.2777 15.7587 15.5 15.8666 14.3888Z" fill="black"/>
<path d="M17.8095 24.1667C17.7016 24.1667 17.7016 24.0556 17.5937 24.0556C17.4857 24.0556 17.4857 23.9445 17.3778 23.9445L16.8381 23.8334L16.2984 23.9445C16.1905 23.9445 15.9746 24.0556 16.0826 24.0556C16.2984 23.9445 15.9746 24.1667 15.8667 24.1667C15.8667 24.1667 15.5429 24.5 15.4349 24.5C15.327 24.6112 15.2191 24.7223 15.1111 24.9445L14.8953 25.3889C14.8953 25.5 14.7873 25.9445 14.8953 25.6112C14.8953 25.5 14.8953 25.8334 14.8953 25.8334L15.0032 26.3889L15.2191 26.8334L15.5429 27.2778L15.9746 27.6112C16.0826 27.7223 16.2984 27.7223 16.5143 27.8334C16.7302 27.8334 16.8381 27.9445 17.054 27.9445L17.5937 27.8334C17.7016 27.8334 17.7016 27.7223 17.8095 27.7223C17.9175 27.7223 17.9175 27.6112 18.0254 27.6112L18.4572 27.2778C18.4572 27.2778 18.781 26.9445 18.781 26.8334C18.781 26.7223 18.8889 26.6112 18.8889 26.6112L18.9968 26.3889C18.9968 26.1667 18.9969 26.0556 19.1048 25.8334C19.1048 25.6112 18.9968 25.1667 18.9968 25.2778C18.9968 25.3889 18.8889 24.9445 18.781 24.8334C18.781 24.8334 18.4572 24.5 18.4572 24.3889C18.2413 24.1667 18.0254 24.0556 17.8095 23.9445C17.3778 23.8334 17.1619 23.8334 16.8381 23.8334C16.6222 23.8334 16.2984 23.8334 16.0826 24.0556C15.8667 24.1667 15.6508 24.2778 15.4349 24.5C15.327 24.6112 15.2191 24.7223 15.1111 24.9445C14.8953 25.2778 14.8953 25.6112 14.8953 25.9445C14.8953 26.1667 14.8953 26.2778 15.0032 26.5C15.1111 26.8334 15.2191 27.1667 15.5429 27.3889C15.4349 27.2778 15.327 27.1667 15.2191 26.9445C15.1111 26.8334 15.1111 26.6112 15.0032 26.5C15.0032 26.2778 15.0032 26.1667 14.8953 25.9445C14.8953 25.7223 14.8953 25.6112 15.0032 25.3889C15.1111 25.2778 15.1111 25.0556 15.2191 24.9445C15.327 24.8334 15.4349 24.7223 15.5429 24.5C15.6508 24.3889 15.7588 24.2778 15.9746 24.1667C16.0826 24.0556 16.2984 24.0556 16.4064 23.9445C16.6222 23.9445 16.7302 23.9445 16.9461 23.8334C17.1619 23.8334 17.2699 23.8334 17.4857 23.9445C17.5937 24.0556 17.8095 24.0556 17.9175 24.1667C18.0254 24.2778 18.1334 24.3889 18.3492 24.5C18.4572 24.6112 18.5651 24.7223 18.673 24.9445C18.781 25.0556 18.781 25.2778 18.8889 25.3889C18.8889 25.6112 18.8889 25.7223 18.9968 25.9445C18.9968 26.1667 18.9968 26.2778 18.8889 26.5C18.781 26.6112 18.781 26.8334 18.673 26.9445C18.5651 27.0556 18.4572 27.1667 18.3492 27.3889C18.2413 27.5 18.1334 27.6112 17.9175 27.7223C17.8095 27.8334 17.5937 27.8334 17.4857 27.9445C17.2699 27.9445 17.1619 27.9445 16.9461 28.0556C16.7302 28.0556 16.6222 28.0556 16.4064 27.9445C16.2984 27.8334 16.0826 27.8334 15.9746 27.7223C16.1905 27.8334 16.4064 27.9445 16.7302 27.9445C16.9461 28.0556 17.2699 27.9445 17.4857 27.9445C17.7016 27.8334 17.9175 27.7223 18.1334 27.6112C18.3492 27.5 18.5651 27.2778 18.673 27.0556C18.781 26.9445 18.781 26.7223 18.8889 26.6112C18.9968 26.2778 18.9968 25.9445 18.8889 25.5C18.781 25.3889 18.781 25.1667 18.673 25.0556C18.3492 24.6112 18.1334 24.3889 17.8095 24.1667Z" fill="black"/>
<path d="M26.5523 6.50003C22.019 2.83336 16.0825 1.94447 10.7936 4.38892C5.1809 6.83336 1.72693 13.1667 2.37455 19.3889C3.02217 25.6111 7.44757 30.8334 13.1682 32.5C19.1047 34.2778 25.365 31.6111 29.0349 26.6111C33.3523 20.3889 32.273 11.2778 26.5523 6.50003C25.6888 5.83336 24.6095 5.72225 23.8539 6.50003C23.2063 7.16669 23.0984 8.61114 23.8539 9.27781C27.7396 12.6111 29.1428 18.2778 26.6603 22.9445C24.6095 26.8334 20.1841 29.5 15.8666 28.9445C11.6571 28.3889 7.77138 25.0556 6.58407 20.8334C5.28884 16.1667 7.23169 11.0556 11.3333 8.50003C15.219 6.16669 20.292 6.38892 23.8539 9.27781C24.7174 9.94447 25.7968 10.0556 26.5523 9.27781C27.1999 8.61114 27.4158 7.16669 26.5523 6.50003Z" fill="black"/>
</svg>
