<svg width="34" height="34" viewBox="0 0 34 34" fill="none" xmlns="http://www.w3.org/2000/svg">
<path d="M10.5541 2.38569C7.83028 2.38569 5.10647 3.85235 3.6398 6.15712C2.06837 8.88093 2.2779 12.3381 3.32552 15.1666C4.4779 18.1 6.46837 20.5095 8.45885 22.8143C10.7636 25.5381 13.0684 28.2619 15.3731 31.0904C16.0017 31.8238 17.4684 31.8238 17.9922 31.0904C20.9255 27.6333 23.8588 24.2809 26.6874 20.8238C29.0969 17.7857 31.2969 14.119 30.9827 10.0333C30.6684 6.26188 27.9446 2.80474 24.0684 2.49045C21.135 2.28093 19.0398 3.95712 17.4684 6.15712C16.316 7.72854 15.4779 9.61426 14.8493 11.3952C16.1065 11.3952 17.2588 11.3952 18.516 11.3952C17.4684 7.72854 14.9541 2.59521 10.5541 2.38569C8.14456 2.28093 8.14456 6.05235 10.5541 6.15712C12.7541 6.26188 14.2208 10.3476 14.8493 12.3381C15.3731 14.2238 17.8874 14.0143 18.516 12.3381C18.935 11.0809 19.6684 9.61426 20.6112 8.14759C21.135 7.41426 21.8684 6.57616 22.6017 6.26188C23.7541 5.84283 25.3255 6.4714 26.2684 7.51902C28.9922 10.6619 26.3731 15.2714 24.2779 17.8904C21.4493 21.4524 18.4112 24.9095 15.4779 28.3666C16.316 28.3666 17.2588 28.3666 18.0969 28.3666C16.316 26.2714 14.535 24.1762 12.7541 22.0809C11.0779 20.0904 9.29694 18.2047 7.93504 16.0047C6.6779 14.0143 5.8398 11.7095 6.36361 9.40474C6.78266 7.51902 8.56361 6.15712 10.5541 6.15712C12.9636 6.26188 12.9636 2.49045 10.5541 2.38569Z" fill="black"/>
</svg>
